<mxfile host="app.diagrams.net" modified="2022-11-22T18:54:37.359Z" agent="5.0 (Windows NT 10.0; Win64; x64) AppleWebKit/537.36 (KHTML, like Gecko) Chrome/107.0.0.0 Safari/537.36 Edg/107.0.1418.52" etag="d7zXAbQYKi0IV8ytDl1q" version="20.5.3" type="github">
  <diagram id="LQicCVnm4t6pKtCoBZvU" name="Page-1">
    <mxGraphModel dx="3776" dy="2156" grid="1" gridSize="10" guides="1" tooltips="1" connect="1" arrows="1" fold="1" page="1" pageScale="1" pageWidth="850" pageHeight="1100" math="0" shadow="0">
      <root>
        <mxCell id="0" />
        <mxCell id="1" parent="0" />
        <mxCell id="MsYmE6K6kDaon9s4ispX-2" value="" style="rounded=0;whiteSpace=wrap;html=1;" vertex="1" parent="1">
          <mxGeometry x="120" y="50" width="2080" height="890" as="geometry" />
        </mxCell>
        <mxCell id="MsYmE6K6kDaon9s4ispX-4" value="createPaymentTransactionDto" style="swimlane;fontStyle=1;align=center;verticalAlign=middle;childLayout=stackLayout;horizontal=1;startSize=29;horizontalStack=0;resizeParent=1;resizeParentMax=0;resizeLast=0;collapsible=0;marginBottom=0;html=1;" vertex="1" parent="1">
          <mxGeometry x="183" y="121" width="320" height="260" as="geometry" />
        </mxCell>
        <mxCell id="MsYmE6K6kDaon9s4ispX-6" value="-&amp;nbsp;transactionID?: string&lt;br&gt;- IPAddress: string&lt;br&gt;- userAccountNumber: string&lt;br&gt;- otherAccountNumber: string&lt;br&gt;- accountID: string&lt;br&gt;- nameOther: string&lt;br&gt;- bankNameOther: BankName_Type&lt;br&gt;- amount :number&lt;br&gt;- fee :number&lt;br&gt;- balanced:number&lt;br&gt;- type: Payment_Type&lt;br&gt;- date: Date | string&lt;br&gt;- created_at:Date&lt;br&gt;- updated_at: Date &lt;br&gt;- deleted_at&amp;nbsp; :Date" style="text;html=1;strokeColor=none;fillColor=none;align=left;verticalAlign=middle;spacingLeft=4;spacingRight=4;overflow=hidden;rotatable=0;points=[[0,0.5],[1,0.5]];portConstraint=eastwest;" vertex="1" parent="MsYmE6K6kDaon9s4ispX-4">
          <mxGeometry y="29" width="320" height="231" as="geometry" />
        </mxCell>
        <mxCell id="MsYmE6K6kDaon9s4ispX-11" value="createOtpTransactionDto" style="swimlane;fontStyle=1;align=center;verticalAlign=middle;childLayout=stackLayout;horizontal=1;startSize=29;horizontalStack=0;resizeParent=1;resizeParentMax=0;resizeLast=0;collapsible=0;marginBottom=0;html=1;" vertex="1" parent="1">
          <mxGeometry x="1589" y="108" width="230" height="170" as="geometry" />
        </mxCell>
        <mxCell id="MsYmE6K6kDaon9s4ispX-13" value="-&amp;nbsp;transactionID: string&lt;br&gt;- refNumber: string&lt;br&gt;- type: UserActivity_Type&lt;br&gt;- timeStart :Date&lt;br&gt;- isFinished: boolean&lt;br&gt;- IPAddress: string &lt;br&gt;- created_at: Date &lt;br&gt;- updated_at&amp;nbsp; :Date&lt;br&gt;- deleted_at&amp;nbsp; :Date;" style="text;html=1;strokeColor=none;fillColor=none;align=left;verticalAlign=middle;spacingLeft=4;spacingRight=4;overflow=hidden;rotatable=0;points=[[0,0.5],[1,0.5]];portConstraint=eastwest;" vertex="1" parent="MsYmE6K6kDaon9s4ispX-11">
          <mxGeometry y="29" width="230" height="141" as="geometry" />
        </mxCell>
        <mxCell id="MsYmE6K6kDaon9s4ispX-14" value="createActivityTransactionDto" style="swimlane;fontStyle=1;align=center;verticalAlign=middle;childLayout=stackLayout;horizontal=1;startSize=29;horizontalStack=0;resizeParent=1;resizeParentMax=0;resizeLast=0;collapsible=0;marginBottom=0;html=1;" vertex="1" parent="1">
          <mxGeometry x="1368" y="125" width="180" height="130" as="geometry" />
        </mxCell>
        <mxCell id="MsYmE6K6kDaon9s4ispX-15" value="-&amp;nbsp;transactionID : string &lt;br&gt;- accountID : string&lt;br&gt;- IPAddress : string &lt;br&gt;- created_at: Date &lt;br&gt;- updated_at&amp;nbsp; :Date &lt;br&gt;- deleted_at&amp;nbsp; :Date" style="text;html=1;strokeColor=none;fillColor=none;align=left;verticalAlign=middle;spacingLeft=4;spacingRight=4;overflow=hidden;rotatable=0;points=[[0,0.5],[1,0.5]];portConstraint=eastwest;" vertex="1" parent="MsYmE6K6kDaon9s4ispX-14">
          <mxGeometry y="29" width="180" height="101" as="geometry" />
        </mxCell>
        <mxCell id="MsYmE6K6kDaon9s4ispX-16" value="createPaymentGatewayApitransactionDto" style="swimlane;fontStyle=1;align=center;verticalAlign=middle;childLayout=stackLayout;horizontal=1;startSize=29;horizontalStack=0;resizeParent=1;resizeParentMax=0;resizeLast=0;collapsible=0;marginBottom=0;html=1;" vertex="1" parent="1">
          <mxGeometry x="753" y="121" width="390" height="270" as="geometry" />
        </mxCell>
        <mxCell id="MsYmE6K6kDaon9s4ispX-17" value="- transactionID:string&lt;br&gt;- shopID: string&lt;br&gt;- shopAccountNumber: string&lt;br&gt;- userAccountNumber: string&lt;br&gt;- nameUser: string&lt;br&gt;- bankNameUser: BankName_Type&lt;br&gt;- amount: number&lt;br&gt;- balance: number&lt;br&gt;- fee: number&lt;br&gt;- type: Payment_Type&lt;br&gt;- isFinish: boolean&lt;br&gt;- date: Date&lt;br&gt;- created_at: Date &lt;br&gt;- updated_at&amp;nbsp; :Date&lt;br&gt;- deleted_at&amp;nbsp; :Date" style="text;html=1;strokeColor=none;fillColor=none;align=left;verticalAlign=middle;spacingLeft=4;spacingRight=4;overflow=hidden;rotatable=0;points=[[0,0.5],[1,0.5]];portConstraint=eastwest;" vertex="1" parent="MsYmE6K6kDaon9s4ispX-16">
          <mxGeometry y="29" width="390" height="241" as="geometry" />
        </mxCell>
        <mxCell id="MsYmE6K6kDaon9s4ispX-19" value="User Notification&lt;br&gt;Transaction" style="swimlane;fontStyle=1;align=center;verticalAlign=middle;childLayout=stackLayout;horizontal=1;startSize=29;horizontalStack=0;resizeParent=1;resizeParentMax=0;resizeLast=0;collapsible=0;marginBottom=0;html=1;" vertex="1" parent="1">
          <mxGeometry x="1179" y="123" width="150" height="140" as="geometry" />
        </mxCell>
        <mxCell id="MsYmE6K6kDaon9s4ispX-20" value="-&amp;nbsp;notiID : string &lt;br&gt;- accountID: string &lt;br&gt;- transactionID: string &lt;br&gt;- isRead: boolean &lt;br&gt;- created_at: Date &lt;br&gt;- updated_at: Date &lt;br&gt;- deleted_at: Date" style="text;html=1;strokeColor=none;fillColor=none;align=left;verticalAlign=middle;spacingLeft=4;spacingRight=4;overflow=hidden;rotatable=0;points=[[0,0.5],[1,0.5]];portConstraint=eastwest;" vertex="1" parent="MsYmE6K6kDaon9s4ispX-19">
          <mxGeometry y="29" width="150" height="111" as="geometry" />
        </mxCell>
        <mxCell id="MsYmE6K6kDaon9s4ispX-24" value="createStatementTransactionDto" style="swimlane;fontStyle=1;align=center;verticalAlign=middle;childLayout=stackLayout;horizontal=1;startSize=29;horizontalStack=0;resizeParent=1;resizeParentMax=0;resizeLast=0;collapsible=0;marginBottom=0;html=1;" vertex="1" parent="1">
          <mxGeometry x="540" y="121" width="190" height="160" as="geometry" />
        </mxCell>
        <mxCell id="MsYmE6K6kDaon9s4ispX-25" value="- userAccountID: string &lt;br&gt;- userAccountNumber: string&lt;br&gt;- destEmail: string &lt;br&gt;- accountName: string&lt;br&gt;- name:string &lt;br&gt;- Date: string;" style="text;html=1;strokeColor=none;fillColor=none;align=left;verticalAlign=middle;spacingLeft=4;spacingRight=4;overflow=hidden;rotatable=0;points=[[0,0.5],[1,0.5]];portConstraint=eastwest;" vertex="1" parent="MsYmE6K6kDaon9s4ispX-24">
          <mxGeometry y="29" width="190" height="131" as="geometry" />
        </mxCell>
        <mxCell id="MsYmE6K6kDaon9s4ispX-26" value="&amp;lt;&amp;lt;service&amp;gt;&amp;gt;&lt;br&gt;PaymentTransactionService" style="swimlane;fontStyle=1;align=center;verticalAlign=middle;childLayout=stackLayout;horizontal=1;startSize=29;horizontalStack=0;resizeParent=1;resizeParentMax=0;resizeLast=0;collapsible=0;marginBottom=0;html=1;" vertex="1" parent="1">
          <mxGeometry x="1971" y="501" width="170" height="54" as="geometry" />
        </mxCell>
        <mxCell id="MsYmE6K6kDaon9s4ispX-29" value="&amp;lt;&amp;lt;service&amp;gt;&amp;gt;&lt;br&gt;PaymentGatewayApi&lt;br&gt;transactionService" style="swimlane;fontStyle=1;align=center;verticalAlign=middle;childLayout=stackLayout;horizontal=1;startSize=50;horizontalStack=0;resizeParent=1;resizeParentMax=0;resizeLast=0;collapsible=0;marginBottom=0;html=1;" vertex="1" parent="1">
          <mxGeometry x="1970" y="580" width="170" height="75" as="geometry" />
        </mxCell>
        <mxCell id="MsYmE6K6kDaon9s4ispX-31" value="&amp;lt;&amp;lt;service&amp;gt;&amp;gt;&lt;br&gt;UserNotification&lt;br&gt;TransactionController" style="swimlane;fontStyle=1;align=center;verticalAlign=middle;childLayout=stackLayout;horizontal=1;startSize=52;horizontalStack=0;resizeParent=1;resizeParentMax=0;resizeLast=0;collapsible=0;marginBottom=0;html=1;" vertex="1" parent="1">
          <mxGeometry x="1970" y="672" width="170" height="77" as="geometry" />
        </mxCell>
        <mxCell id="MsYmE6K6kDaon9s4ispX-33" value="&amp;lt;&amp;lt;service&amp;gt;&amp;gt;&lt;br&gt;ActivityTransactionService" style="swimlane;fontStyle=1;align=center;verticalAlign=middle;childLayout=stackLayout;horizontal=1;startSize=29;horizontalStack=0;resizeParent=1;resizeParentMax=0;resizeLast=0;collapsible=0;marginBottom=0;html=1;" vertex="1" parent="1">
          <mxGeometry x="1970" y="768" width="170" height="54" as="geometry" />
        </mxCell>
        <mxCell id="MsYmE6K6kDaon9s4ispX-35" value="&amp;lt;&amp;lt;service&amp;gt;&amp;gt;&lt;br&gt;OtpTransactionController" style="swimlane;fontStyle=1;align=center;verticalAlign=middle;childLayout=stackLayout;horizontal=1;startSize=29;horizontalStack=0;resizeParent=1;resizeParentMax=0;resizeLast=0;collapsible=0;marginBottom=0;html=1;" vertex="1" parent="1">
          <mxGeometry x="1970" y="842" width="170" height="54" as="geometry" />
        </mxCell>
        <mxCell id="MsYmE6K6kDaon9s4ispX-45" value="" style="endArrow=none;dashed=1;html=1;strokeColor=#001DBC;entryX=-0.006;entryY=0.027;entryDx=0;entryDy=0;entryPerimeter=0;exitX=0.522;exitY=1.001;exitDx=0;exitDy=0;exitPerimeter=0;endFill=0;startArrow=open;startFill=0;jumpStyle=none;sketch=0;rounded=0;edgeStyle=elbowEdgeStyle;elbow=vertical;fillColor=#0050ef;" edge="1" parent="1" source="MsYmE6K6kDaon9s4ispX-6">
          <mxGeometry width="50" height="50" relative="1" as="geometry">
            <mxPoint x="1890" y="780" as="sourcePoint" />
            <mxPoint x="1969.9800000000005" y="530.675" as="targetPoint" />
            <Array as="points">
              <mxPoint x="1880" y="456" />
              <mxPoint x="1920" y="456" />
            </Array>
          </mxGeometry>
        </mxCell>
        <mxCell id="MsYmE6K6kDaon9s4ispX-47" value="" style="endArrow=none;dashed=1;html=1;rounded=0;sketch=0;strokeColor=#D79B00;jumpStyle=none;entryX=0.084;entryY=-0.16;entryDx=0;entryDy=0;entryPerimeter=0;exitX=0.507;exitY=1.014;exitDx=0;exitDy=0;exitPerimeter=0;edgeStyle=orthogonalEdgeStyle;startArrow=open;startFill=0;fillColor=#ffe6cc;" edge="1" parent="1" source="MsYmE6K6kDaon9s4ispX-25">
          <mxGeometry width="50" height="50" relative="1" as="geometry">
            <mxPoint x="970" y="750" as="sourcePoint" />
            <mxPoint x="1985.2800000000002" y="526" as="targetPoint" />
            <Array as="points">
              <mxPoint x="636" y="526" />
            </Array>
          </mxGeometry>
        </mxCell>
        <mxCell id="MsYmE6K6kDaon9s4ispX-48" value="" style="endArrow=none;dashed=1;html=1;rounded=0;sketch=0;strokeColor=#B85450;jumpStyle=none;entryX=0;entryY=0.5;entryDx=0;entryDy=0;exitX=0.485;exitY=1.016;exitDx=0;exitDy=0;exitPerimeter=0;edgeStyle=orthogonalEdgeStyle;startArrow=open;startFill=0;fillColor=#f8cecc;" edge="1" parent="1" source="MsYmE6K6kDaon9s4ispX-17" target="MsYmE6K6kDaon9s4ispX-29">
          <mxGeometry width="50" height="50" relative="1" as="geometry">
            <mxPoint x="1340" y="590" as="sourcePoint" />
            <mxPoint x="1390" y="540" as="targetPoint" />
            <Array as="points">
              <mxPoint x="942" y="618" />
            </Array>
          </mxGeometry>
        </mxCell>
        <mxCell id="MsYmE6K6kDaon9s4ispX-49" value="" style="endArrow=none;dashed=1;html=1;rounded=0;sketch=0;strokeColor=#82B366;jumpStyle=none;entryX=0;entryY=0.5;entryDx=0;entryDy=0;exitX=0.468;exitY=1.034;exitDx=0;exitDy=0;exitPerimeter=0;startArrow=open;startFill=0;edgeStyle=orthogonalEdgeStyle;fillColor=#d5e8d4;" edge="1" parent="1" source="MsYmE6K6kDaon9s4ispX-20" target="MsYmE6K6kDaon9s4ispX-31">
          <mxGeometry width="50" height="50" relative="1" as="geometry">
            <mxPoint x="1340" y="590" as="sourcePoint" />
            <mxPoint x="1390" y="540" as="targetPoint" />
            <Array as="points">
              <mxPoint x="1249" y="711" />
            </Array>
          </mxGeometry>
        </mxCell>
        <mxCell id="MsYmE6K6kDaon9s4ispX-50" value="" style="endArrow=open;dashed=1;html=1;rounded=0;sketch=0;strokeColor=#A50040;jumpStyle=none;entryX=0.478;entryY=1.053;entryDx=0;entryDy=0;entryPerimeter=0;exitX=-0.014;exitY=-0.088;exitDx=0;exitDy=0;exitPerimeter=0;edgeStyle=elbowEdgeStyle;endFill=0;fillColor=#d80073;" edge="1" parent="1" target="MsYmE6K6kDaon9s4ispX-15">
          <mxGeometry width="50" height="50" relative="1" as="geometry">
            <mxPoint x="1967.62" y="794.8" as="sourcePoint" />
            <mxPoint x="1390" y="540" as="targetPoint" />
            <Array as="points">
              <mxPoint x="1454" y="520" />
            </Array>
          </mxGeometry>
        </mxCell>
        <mxCell id="MsYmE6K6kDaon9s4ispX-52" value="" style="endArrow=open;dashed=1;html=1;rounded=0;sketch=0;strokeColor=#9673A6;jumpStyle=none;entryX=0.534;entryY=1.004;entryDx=0;entryDy=0;entryPerimeter=0;exitX=0.014;exitY=-0.017;exitDx=0;exitDy=0;exitPerimeter=0;edgeStyle=elbowEdgeStyle;endFill=0;fillColor=#e1d5e7;" edge="1" parent="1" target="MsYmE6K6kDaon9s4ispX-13">
          <mxGeometry width="50" height="50" relative="1" as="geometry">
            <mxPoint x="1972.3799999999997" y="870.575" as="sourcePoint" />
            <mxPoint x="1480" y="460" as="targetPoint" />
            <Array as="points">
              <mxPoint x="1712" y="570" />
            </Array>
          </mxGeometry>
        </mxCell>
        <mxCell id="MsYmE6K6kDaon9s4ispX-54" value="&lt;font color=&quot;#001dbc&quot;&gt;&amp;lt;&amp;lt;use&amp;gt;&amp;gt;&lt;/font&gt;" style="text;html=1;strokeColor=none;fillColor=none;align=center;verticalAlign=middle;whiteSpace=wrap;rounded=0;" vertex="1" parent="1">
          <mxGeometry x="670" y="430" width="60" height="30" as="geometry" />
        </mxCell>
        <mxCell id="MsYmE6K6kDaon9s4ispX-55" value="&lt;font color=&quot;#d79b00&quot;&gt;&amp;lt;&amp;lt;use&amp;gt;&amp;gt;&lt;/font&gt;" style="text;html=1;strokeColor=none;fillColor=none;align=center;verticalAlign=middle;whiteSpace=wrap;rounded=0;" vertex="1" parent="1">
          <mxGeometry x="671" y="500" width="60" height="30" as="geometry" />
        </mxCell>
        <mxCell id="MsYmE6K6kDaon9s4ispX-56" value="&lt;font color=&quot;#b85450&quot;&gt;&amp;lt;&amp;lt;use&amp;gt;&amp;gt;&lt;/font&gt;" style="text;html=1;strokeColor=none;fillColor=none;align=center;verticalAlign=middle;whiteSpace=wrap;rounded=0;" vertex="1" parent="1">
          <mxGeometry x="960" y="590" width="60" height="30" as="geometry" />
        </mxCell>
        <mxCell id="MsYmE6K6kDaon9s4ispX-57" value="&lt;font color=&quot;#82b366&quot;&gt;&amp;lt;&amp;lt;use&amp;gt;&amp;gt;&lt;/font&gt;" style="text;html=1;strokeColor=none;fillColor=none;align=center;verticalAlign=middle;whiteSpace=wrap;rounded=0;" vertex="1" parent="1">
          <mxGeometry x="1261" y="680" width="60" height="30" as="geometry" />
        </mxCell>
        <mxCell id="MsYmE6K6kDaon9s4ispX-58" value="&lt;font color=&quot;#a50040&quot;&gt;&amp;lt;&amp;lt;use&amp;gt;&amp;gt;&lt;/font&gt;" style="text;html=1;strokeColor=none;fillColor=none;align=center;verticalAlign=middle;whiteSpace=wrap;rounded=0;" vertex="1" parent="1">
          <mxGeometry x="1470" y="768" width="60" height="30" as="geometry" />
        </mxCell>
        <mxCell id="MsYmE6K6kDaon9s4ispX-59" value="&lt;font color=&quot;#9673a6&quot;&gt;&amp;lt;&amp;lt;use&amp;gt;&amp;gt;&lt;/font&gt;" style="text;html=1;strokeColor=none;fillColor=none;align=center;verticalAlign=middle;whiteSpace=wrap;rounded=0;" vertex="1" parent="1">
          <mxGeometry x="1710" y="840" width="60" height="30" as="geometry" />
        </mxCell>
        <mxCell id="MsYmE6K6kDaon9s4ispX-60" value="&lt;span style=&quot;font-weight: normal;&quot;&gt;&amp;lt;&amp;lt;enumeration&amp;gt;&amp;gt;&lt;br&gt;&lt;/span&gt;&lt;span style=&quot;text-align: left;&quot;&gt;Payment_Type&lt;/span&gt;" style="swimlane;fontStyle=1;align=center;verticalAlign=middle;childLayout=stackLayout;horizontal=1;startSize=29;horizontalStack=0;resizeParent=1;resizeParentMax=0;resizeLast=0;collapsible=0;marginBottom=0;html=1;" vertex="1" parent="1">
          <mxGeometry x="300" y="559" width="170" height="140" as="geometry" />
        </mxCell>
        <mxCell id="MsYmE6K6kDaon9s4ispX-61" value="&lt;div&gt;- TRANSFER&amp;nbsp;&lt;/div&gt;&lt;div&gt;- RECEIVE&amp;nbsp;&lt;/div&gt;&lt;div&gt;- WITHDRAW&amp;nbsp;&lt;/div&gt;&lt;div&gt;- DEPOSIT&amp;nbsp;&lt;/div&gt;&lt;div style=&quot;&quot;&gt;- QR_PAYMENT&amp;nbsp;&lt;/div&gt;" style="text;html=1;strokeColor=none;fillColor=none;align=left;verticalAlign=middle;spacingLeft=4;spacingRight=4;overflow=hidden;rotatable=0;points=[[0,0.5],[1,0.5]];portConstraint=eastwest;" vertex="1" parent="MsYmE6K6kDaon9s4ispX-60">
          <mxGeometry y="29" width="170" height="111" as="geometry" />
        </mxCell>
        <mxCell id="MsYmE6K6kDaon9s4ispX-62" value="&lt;span style=&quot;font-weight: normal;&quot;&gt;&amp;lt;&amp;lt;enumeration&amp;gt;&amp;gt;&lt;br&gt;&lt;/span&gt;&lt;span style=&quot;text-align: left;&quot;&gt;BankName_Type&lt;/span&gt;" style="swimlane;fontStyle=1;align=center;verticalAlign=middle;childLayout=stackLayout;horizontal=1;startSize=29;horizontalStack=0;resizeParent=1;resizeParentMax=0;resizeLast=0;collapsible=0;marginBottom=0;html=1;" vertex="1" parent="1">
          <mxGeometry x="503" y="559" width="170" height="60" as="geometry" />
        </mxCell>
        <mxCell id="MsYmE6K6kDaon9s4ispX-63" value="&lt;div&gt;- d4QU&lt;/div&gt;" style="text;html=1;strokeColor=none;fillColor=none;align=left;verticalAlign=middle;spacingLeft=4;spacingRight=4;overflow=hidden;rotatable=0;points=[[0,0.5],[1,0.5]];portConstraint=eastwest;" vertex="1" parent="MsYmE6K6kDaon9s4ispX-62">
          <mxGeometry y="29" width="170" height="31" as="geometry" />
        </mxCell>
        <mxCell id="MsYmE6K6kDaon9s4ispX-64" value="&lt;span style=&quot;font-weight: normal;&quot;&gt;&amp;lt;&amp;lt;enumeration&amp;gt;&amp;gt;&lt;br&gt;&lt;/span&gt;&lt;span style=&quot;text-align: left;&quot;&gt;UserActivity_Type&lt;/span&gt;" style="swimlane;fontStyle=1;align=center;verticalAlign=middle;childLayout=stackLayout;horizontal=1;startSize=29;horizontalStack=0;resizeParent=1;resizeParentMax=0;resizeLast=0;collapsible=0;marginBottom=0;html=1;" vertex="1" parent="1">
          <mxGeometry x="690" y="560" width="170" height="90" as="geometry" />
        </mxCell>
        <mxCell id="MsYmE6K6kDaon9s4ispX-65" value="&lt;div&gt;- LOGIN&lt;/div&gt;&lt;div&gt;- REGISTER&lt;/div&gt;" style="text;html=1;strokeColor=none;fillColor=none;align=left;verticalAlign=middle;spacingLeft=4;spacingRight=4;overflow=hidden;rotatable=0;points=[[0,0.5],[1,0.5]];portConstraint=eastwest;" vertex="1" parent="MsYmE6K6kDaon9s4ispX-64">
          <mxGeometry y="29" width="170" height="61" as="geometry" />
        </mxCell>
        <mxCell id="MsYmE6K6kDaon9s4ispX-66" value="" style="endArrow=none;dashed=1;html=1;rounded=0;sketch=0;strokeColor=#67AB9F;fontColor=#9673A6;jumpStyle=none;entryX=0.002;entryY=0.443;entryDx=0;entryDy=0;entryPerimeter=0;exitX=0.5;exitY=0;exitDx=0;exitDy=0;edgeStyle=orthogonalEdgeStyle;startArrow=open;startFill=0;" edge="1" parent="1" source="MsYmE6K6kDaon9s4ispX-62" target="MsYmE6K6kDaon9s4ispX-6">
          <mxGeometry width="50" height="50" relative="1" as="geometry">
            <mxPoint x="520" y="580" as="sourcePoint" />
            <mxPoint x="570" y="530" as="targetPoint" />
          </mxGeometry>
        </mxCell>
        <mxCell id="MsYmE6K6kDaon9s4ispX-67" value="&lt;font color=&quot;#67ab9f&quot;&gt;&amp;lt;&amp;lt;use&amp;gt;&amp;gt;&lt;/font&gt;" style="text;html=1;strokeColor=none;fillColor=none;align=center;verticalAlign=middle;whiteSpace=wrap;rounded=0;" vertex="1" parent="1">
          <mxGeometry x="183" y="440" width="60" height="30" as="geometry" />
        </mxCell>
        <mxCell id="MsYmE6K6kDaon9s4ispX-69" value="" style="endArrow=none;dashed=1;html=1;rounded=0;sketch=0;strokeColor=#A50040;fontColor=#67AB9F;jumpStyle=none;entryX=0;entryY=0.689;entryDx=0;entryDy=0;entryPerimeter=0;exitX=0.5;exitY=0;exitDx=0;exitDy=0;edgeStyle=orthogonalEdgeStyle;endFill=0;startArrow=open;startFill=0;fillColor=#d80073;" edge="1" parent="1" source="MsYmE6K6kDaon9s4ispX-60" target="MsYmE6K6kDaon9s4ispX-6">
          <mxGeometry width="50" height="50" relative="1" as="geometry">
            <mxPoint x="790" y="580" as="sourcePoint" />
            <mxPoint x="840" y="530" as="targetPoint" />
            <Array as="points">
              <mxPoint x="385" y="510" />
              <mxPoint x="150" y="510" />
              <mxPoint x="150" y="309" />
            </Array>
          </mxGeometry>
        </mxCell>
        <mxCell id="MsYmE6K6kDaon9s4ispX-70" value="&lt;font color=&quot;#a50040&quot;&gt;&amp;lt;&amp;lt;use&amp;gt;&amp;gt;&lt;/font&gt;" style="text;html=1;strokeColor=none;fillColor=none;align=center;verticalAlign=middle;whiteSpace=wrap;rounded=0;" vertex="1" parent="1">
          <mxGeometry x="170" y="469" width="60" height="70" as="geometry" />
        </mxCell>
        <mxCell id="MsYmE6K6kDaon9s4ispX-71" value="" style="endArrow=none;dashed=1;html=1;rounded=0;sketch=0;strokeColor=#CC6600;fontColor=#A50040;jumpStyle=none;entryX=0;entryY=0.396;entryDx=0;entryDy=0;entryPerimeter=0;exitX=0.635;exitY=0.008;exitDx=0;exitDy=0;exitPerimeter=0;edgeStyle=orthogonalEdgeStyle;startArrow=open;startFill=0;" edge="1" parent="1" source="MsYmE6K6kDaon9s4ispX-62" target="MsYmE6K6kDaon9s4ispX-17">
          <mxGeometry width="50" height="50" relative="1" as="geometry">
            <mxPoint x="730" y="480" as="sourcePoint" />
            <mxPoint x="780" y="430" as="targetPoint" />
            <Array as="points">
              <mxPoint x="611" y="380" />
              <mxPoint x="740" y="380" />
              <mxPoint x="740" y="245" />
            </Array>
          </mxGeometry>
        </mxCell>
        <mxCell id="MsYmE6K6kDaon9s4ispX-72" value="&lt;font color=&quot;#cc6600&quot;&gt;&amp;lt;&amp;lt;use&amp;gt;&amp;gt;&lt;/font&gt;" style="text;html=1;strokeColor=none;fillColor=none;align=center;verticalAlign=middle;whiteSpace=wrap;rounded=0;" vertex="1" parent="1">
          <mxGeometry x="640" y="351" width="60" height="30" as="geometry" />
        </mxCell>
        <mxCell id="MsYmE6K6kDaon9s4ispX-73" value="" style="endArrow=none;dashed=1;html=1;rounded=0;sketch=0;strokeColor=#FF0000;fontColor=#CC6600;jumpStyle=none;entryX=-0.003;entryY=0.628;entryDx=0;entryDy=0;exitX=0.75;exitY=0;exitDx=0;exitDy=0;elbow=vertical;entryPerimeter=0;edgeStyle=orthogonalEdgeStyle;startArrow=open;startFill=0;" edge="1" parent="1" source="MsYmE6K6kDaon9s4ispX-60" target="MsYmE6K6kDaon9s4ispX-17">
          <mxGeometry width="50" height="50" relative="1" as="geometry">
            <mxPoint x="730" y="480" as="sourcePoint" />
            <mxPoint x="780" y="430" as="targetPoint" />
            <Array as="points">
              <mxPoint x="428" y="520" />
              <mxPoint x="540" y="520" />
              <mxPoint x="540" y="330" />
              <mxPoint x="730" y="330" />
              <mxPoint x="730" y="301" />
            </Array>
          </mxGeometry>
        </mxCell>
        <mxCell id="MsYmE6K6kDaon9s4ispX-76" value="&lt;font color=&quot;#ff0000&quot;&gt;&amp;lt;&amp;lt;use&amp;gt;&amp;gt;&lt;/font&gt;" style="text;html=1;strokeColor=none;fillColor=none;align=center;verticalAlign=middle;whiteSpace=wrap;rounded=0;" vertex="1" parent="1">
          <mxGeometry x="443" y="489" width="60" height="30" as="geometry" />
        </mxCell>
        <mxCell id="MsYmE6K6kDaon9s4ispX-78" value="" style="endArrow=none;dashed=1;html=1;rounded=0;sketch=0;strokeColor=#00FF00;fontColor=#FF0000;jumpStyle=none;entryX=-0.01;entryY=0.294;entryDx=0;entryDy=0;entryPerimeter=0;exitX=0.5;exitY=0;exitDx=0;exitDy=0;startArrow=open;startFill=0;" edge="1" parent="1" source="MsYmE6K6kDaon9s4ispX-64" target="MsYmE6K6kDaon9s4ispX-13">
          <mxGeometry width="50" height="50" relative="1" as="geometry">
            <mxPoint x="1740" y="320" as="sourcePoint" />
            <mxPoint x="1790" y="270" as="targetPoint" />
            <Array as="points">
              <mxPoint x="775" y="500" />
              <mxPoint x="1560" y="500" />
              <mxPoint x="1560" y="178" />
            </Array>
          </mxGeometry>
        </mxCell>
        <mxCell id="MsYmE6K6kDaon9s4ispX-81" value="&lt;font color=&quot;#00ff00&quot;&gt;&amp;lt;&amp;lt;use&amp;gt;&amp;gt;&lt;/font&gt;" style="text;html=1;strokeColor=none;fillColor=none;align=center;verticalAlign=middle;whiteSpace=wrap;rounded=0;" vertex="1" parent="1">
          <mxGeometry x="1040" y="471" width="60" height="30" as="geometry" />
        </mxCell>
      </root>
    </mxGraphModel>
  </diagram>
</mxfile>
